<svg xmlns="http://www.w3.org/2000/svg" width="510" height="332" fill="none" viewBox="0 0 510 332">
  <path fill="url(#a)" d="m474.978 111.295-67.646-73.138c-.042-.045-.087-.087-.129-.132-.042-.045-.091-.106-.14-.158-19.74-21.34-45.764-34.543-73.562-37.319-27.797-2.776-55.616 5.05-78.639 22.119C231.839 5.597 204.021-2.228 176.223.548c-27.798 2.776-53.821 15.978-73.562 37.319l-67.646 73.136C13.939 133.795 1.497 164.277.126 196.472c-1.37 32.195 8.431 63.784 27.483 88.573 19.05 24.788 45.978 40.991 75.504 45.43 29.526 4.439 59.521-3.203 84.105-21.431 19.906 14.758 43.475 22.66 67.61 22.669 24.137.007 47.71-7.881 67.624-22.627 24.555 18.34 54.566 26.089 84.137 21.726 29.571-4.364 56.563-20.524 75.676-45.308 19.112-24.784 28.96-56.399 27.613-88.632-1.349-32.236-13.797-62.76-34.9-85.577ZM150.485 272.42c-15.271 7.886-32.629 9.679-49.005 5.066-16.377-4.611-30.718-15.335-40.49-30.275-9.77-14.939-14.342-33.13-12.907-51.361 1.435-18.232 8.785-35.328 20.75-48.267l67.645-73.137c10.499-11.337 23.987-18.882 38.612-21.598 14.624-2.717 29.669-.472 43.065 6.426l-47.85 51.729c-18.349 19.736-30.229 45.417-33.827 73.13a141.669 141.669 0 0 0-1.196 18.29c-.048 24.193 6.227 47.908 18.102 68.415a65.42 65.42 0 0 1-2.899 1.576v.006Zm155.111-15.139c-13.47 14.468-31.696 22.571-50.684 22.538-18.988-.035-37.188-8.206-50.615-22.721-13.425-14.517-20.983-34.194-21.015-54.723-.03-20.53 7.465-40.234 20.847-54.799l50.733-54.852 50.734 54.852c13.432 14.559 20.975 34.283 20.975 54.847 0 20.562-7.543 40.287-20.975 54.845v.013Zm135.559.29c-10.549 11.376-24.108 18.925-38.8 21.603-14.693 2.679-29.791.353-43.207-6.655a67.703 67.703 0 0 1-2.863-1.58c11.911-20.529 18.206-44.283 18.158-68.516a142.026 142.026 0 0 0-1.196-18.29c-3.598-27.713-15.479-53.394-33.828-73.13l-47.557-51.416-.269-.29c13.39-6.895 28.427-9.141 43.045-6.431 14.618 2.71 28.101 10.244 38.602 21.568.049.052.094.108.14.16.047.052.087.087.129.132l67.329 72.795.322.347c13.454 14.549 21.013 34.28 21.013 54.852 0 20.573-7.559 40.304-21.013 54.853l-.005-.002Z"/>
  <defs>
    <linearGradient id="a" x1="139.74" x2="273.466" y1="328.348" y2="-15.59" gradientUnits="userSpaceOnUse">
      <stop stop-color="#44FFA5"/>
      <stop offset="1" stop-color="#0090F8"/>
    </linearGradient>
  </defs>
</svg>
