<svg xmlns="http://www.w3.org/2000/svg" width="255" height="167" fill="none" viewBox="0 0 255 167">
  <path fill="url(#a)" d="m237.489 55.65-33.823-36.57-.064-.066-.07-.08c-9.87-10.67-22.883-17.272-36.781-18.66-13.899-1.388-27.808 2.525-39.32 11.06C115.92 2.8 102.01-1.114 88.111.274c-13.898 1.388-26.91 7.99-36.78 18.66l-33.824 36.57C6.97 66.901.748 82.144.064 98.241c-.685 16.099 4.216 31.894 13.741 44.29 9.526 12.394 22.99 20.496 37.752 22.716 14.763 2.22 29.76-1.602 42.053-10.716 9.953 7.379 21.738 11.33 33.805 11.335 12.069.003 23.855-3.941 33.812-11.315 12.277 9.171 27.283 13.046 42.069 10.864 14.785-2.182 28.281-10.262 37.838-22.655 9.555-12.393 14.48-28.201 13.806-44.319-.674-16.118-6.898-31.381-17.45-42.79ZM75.243 136.217c-7.636 3.944-16.315 4.841-24.503 2.534-8.188-2.306-15.359-7.668-20.245-15.138-4.885-7.47-7.171-16.567-6.454-25.683.718-9.116 4.393-17.664 10.376-24.134l33.822-36.57c5.25-5.67 11.994-9.442 19.306-10.8 7.312-1.359 14.834-.236 21.533 3.213L85.153 55.504c-9.175 9.87-15.115 22.71-16.914 36.568a70.915 70.915 0 0 0-.598 9.145c-.024 12.098 3.113 23.956 9.05 34.21-.478.276-.961.538-1.448.788v.002Zm77.555-7.57c-6.735 7.235-15.848 11.287-25.342 11.27-9.494-.017-18.594-4.103-25.307-11.361-6.713-7.259-10.492-17.098-10.508-27.363-.015-10.265 3.732-20.118 10.423-27.4l25.367-27.428 25.367 27.427c6.716 7.28 10.487 17.143 10.487 27.425s-3.771 20.145-10.487 27.424v.006Zm67.779.146c-5.274 5.688-12.054 9.463-19.4 10.802-7.346 1.339-14.895.176-21.603-3.328-.482-.251-.96-.515-1.432-.79 5.956-10.265 9.104-22.142 9.079-34.26a70.755 70.755 0 0 0-.598-9.145c-1.799-13.858-7.739-26.699-16.914-36.568l-23.778-25.709-.134-.145c6.695-3.448 14.213-4.57 21.522-3.216 7.309 1.355 14.051 5.123 19.301 10.785l.07.08c.023.026.044.044.064.066l33.665 36.4.161.173c6.727 7.275 10.507 17.141 10.507 27.428 0 10.287-3.78 20.153-10.507 27.427h-.003Z"/>
  <defs>
    <linearGradient id="a" x1="69.87" x2="136.74" y1="164.183" y2="-7.793" gradientUnits="userSpaceOnUse">
      <stop stop-color="#44FFA5"/>
      <stop offset="1" stop-color="#0090F8"/>
    </linearGradient>
  </defs>
</svg>
